<svg xmlns="http://www.w3.org/2000/svg" viewBox="0 0 45.875 44.372">
  <defs>
    <style>
      .cls-1 {
        fill: #fff;
      }
    </style>
  </defs>
  <g id="plugins" transform="translate(87.492 34.447) rotate(137)">
    <g id="Group_3162" data-name="Group 3162" transform="translate(15.5 44.4)">
      <path id="Path_5058" data-name="Path 5058" class="cls-1" d="M33.937,44.4H30.965a8.513,8.513,0,0,0-8.442,7.226H16.851a1.351,1.351,0,0,0,0,2.7h5.673a8.566,8.566,0,0,0,8.442,7.226h2.972A1.355,1.355,0,0,0,35.288,60.2V45.751A1.355,1.355,0,0,0,33.937,44.4ZM32.586,58.852H30.965a5.876,5.876,0,0,1,0-11.751h1.621Z" transform="translate(-15.5 -44.4)"/>
      <path id="Path_5059" data-name="Path 5059" class="cls-1" d="M71.562,51.626H65.889A8.566,8.566,0,0,0,57.447,44.4H54.476a1.355,1.355,0,0,0-1.351,1.351v2.229H49.951a1.351,1.351,0,0,0,0,2.7h3.174v4.66H49.951a1.351,1.351,0,1,0,0,2.7h3.174v2.229a1.355,1.355,0,0,0,1.351,1.351h2.972A8.513,8.513,0,0,0,65.889,54.4h5.673a1.355,1.355,0,0,0,1.351-1.351A1.414,1.414,0,0,0,71.562,51.626ZM57.379,58.852H55.759V47.1h1.621a5.876,5.876,0,0,1,0,11.751Z" transform="translate(-26.246 -44.4)"/>
    </g>
  </g>
</svg>
