<svg xmlns="http://www.w3.org/2000/svg" xmlns:xlink="http://www.w3.org/1999/xlink" viewBox="0 0 218.663 302.912"><defs><style>.a{fill:#fff;}.b{fill:#e6ebf0;}.c{fill:url(#c);}.d{filter:url(#a);}</style><filter id="a" x="0" y="0" width="218.599" height="249.093" filterUnits="userSpaceOnUse"><feOffset input="SourceAlpha"/><feGaussianBlur stdDeviation="10" result="b"/><feFlood flood-opacity="0.161"/><feComposite operator="in" in2="b"/><feComposite in="SourceGraphic"/></filter><linearGradient id="c" x1="0.573" y1="-0.454" x2="0.788" y2="0.5" gradientUnits="objectBoundingBox"><stop offset="0" stop-color="#0fdaff"/><stop offset="1" stop-color="#0376d2"/></linearGradient></defs><g transform="translate(-250.874 -367.047)"><g transform="translate(279.975 490.448)"><g transform="translate(0.898 -93.401)"><g class="d" transform="matrix(1, 0, 0, 1, -30, -30)"><path class="a" d="M336.128,223.245c-.092-3.406-.184-6.9-.184-10.4h.092V186.789c0-8.562,0-17.307.092-25.961.092-10.495-5.892-18.228-16.018-20.714-9.85-2.394-19.977-4.879-29.736-7.365l-4.327-1.1c-7.365-1.841-15.006-3.774-22.463-5.616a26.927,26.927,0,0,0-13.257,0c-8.285,2.025-16.479,4.051-24.12,5.984-9.482,2.394-21.266,5.339-32.5,8.009-10.127,2.486-16.2,10.311-16.111,20.9l.092,9.3c.092,17.86.184,36.272-.092,54.408-.276,18.6,5.708,35.351,17.768,49.989,12.981,15.742,29.828,27.8,53.027,37.929a21.772,21.772,0,0,0,8.47,1.749,24,24,0,0,0,8.838-1.749c19.517-8.378,35.167-18.964,47.872-32.221C329.315,263.66,336.957,244.419,336.128,223.245Z" transform="translate(-147.59 -95.2)"/></g><path class="b" d="M342.98,223.245c-.092-3.406-.184-6.9-.184-10.4h.092V186.789c0-8.562,0-17.307.092-25.961.092-10.495-5.892-18.228-16.018-20.714-9.851-2.394-19.977-4.879-29.736-7.365l-4.327-1.1c-7.365-1.841-15.006-3.774-22.463-5.616a25.964,25.964,0,0,0-6.536-.829v189a22.587,22.587,0,0,0,8.562-1.749c19.517-8.378,35.167-18.964,47.872-32.221C336.168,263.66,343.809,244.419,342.98,223.245Z" transform="translate(-184.442 -125.2)"/><g transform="translate(29.745 30.748)"><path class="c" d="M247.737,194.5a53.946,53.946,0,0,1,53.027,45.294,74.12,74.12,0,0,1,.645,11.047,8.167,8.167,0,0,1-1.1,3.867c-1.013,1.933-2.3,3.682-3.5,5.524-.644.921-1.381,1.565-2.578,1.1s-1.381-1.473-1.289-2.67c.553-7.089.829-14.177-.828-21.266-4.327-17.86-19.609-31.853-37.745-34.247-15.927-2.117-29.367,2.854-40.323,14.454-.737.737-1.381,1.473-2.578,1.2a1.883,1.883,0,0,1-1.565-1.933,22.356,22.356,0,0,1,.644-5.616,9.012,9.012,0,0,1,2.578-4.051,52.462,52.462,0,0,1,30.1-12.52C244.607,194.592,246.172,194.592,247.737,194.5Z" transform="translate(-209.9 -161.45)"/><path class="c" d="M285.387,253.1c-.828,6.168-1.565,12.336-2.486,18.412-.553,4.143-3.59,6.076-7.181,7.273a1.964,1.964,0,0,1-2.394-2.485c.645-2.946,1.473-5.984,2.025-8.93a78.294,78.294,0,0,0,1.2-21.266c-1.289-12.152-11.231-22.739-23.383-24.856a29.059,29.059,0,0,0-34.155,23.936c-.184.921-.184,1.841-.368,2.67a1.968,1.968,0,0,1-1.749,1.841,1.829,1.829,0,0,1-2.117-1.2,59.4,59.4,0,0,1-2.486-7.825,6.937,6.937,0,0,1,.553-4.051c5.8-13.9,16.11-22.279,31.208-23.844,19.425-2.025,36.64,11.047,40.323,30.38.184.829.276,1.657.368,2.394.184,2.486.276,4.971.368,7.457A.338.338,0,0,0,285.387,253.1Z" transform="translate(-210.081 -162.885)"/><path class="c" d="M248.2,176.4c24.58.736,44.1,10.955,58.366,31.117A15.948,15.948,0,0,1,309.6,217v5.063a2.059,2.059,0,0,1-1.657,2.3c-1.2.276-1.933-.46-2.394-1.473a69.383,69.383,0,0,0-3.5-6.9c-10.311-17.215-25.409-27.526-45.2-30.564a60.151,60.151,0,0,0-36,5.708c-.276.184-.644.276-.921.46a1.861,1.861,0,0,1-2.486-.368,1.95,1.95,0,0,1-.276-2.486,15.746,15.746,0,0,1,9.759-8.838A70.955,70.955,0,0,1,248.2,176.4Z" transform="translate(-210.452 -160.013)"/><path class="c" d="M269.66,254.711a86.71,86.71,0,0,1-4.7,25.224c-1.1,3.13-2.117,3.775-5.34,3.683a10,10,0,0,1-1.657-.092c-1.841-.092-2.762-1.381-2.025-3.13,3.959-9.3,5.432-19.057,5.432-29a12.475,12.475,0,1,0-24.949,0,48.613,48.613,0,0,1-2.854,17.768c-1.013,2.578-2.394,2.854-4.327.921l-1.749-1.749a3.916,3.916,0,0,1-1.013-4.051,46.071,46.071,0,0,0,1.657-12.8,20.745,20.745,0,0,1,16.847-20.622c11.416-2.3,23.015,5.984,24.3,17.492C269.568,250.476,269.568,252.593,269.66,254.711Z" transform="translate(-211.201 -164.307)"/><path class="c" d="M255.207,158.692a85.843,85.843,0,0,1,29.736,7.181c6.628,2.946,11.324,8.009,15.282,13.9a1.9,1.9,0,0,1-.276,2.67c-.736.737-1.841.737-2.946-.092a75.682,75.682,0,0,0-20.069-10.863,78.706,78.706,0,0,0-35.167-4.419,2.286,2.286,0,0,1-2.486-1.2,1.732,1.732,0,0,1,.645-2.394c4.511-2.486,9.114-4.879,14.453-4.879A2.547,2.547,0,0,0,255.207,158.692Z" transform="translate(-212.215 -158.6)"/><path class="c" d="M254.135,256.333a61.693,61.693,0,0,1-5.432,23.66c-1.013,2.117-1.749,2.394-3.959,1.473-1.013-.46-1.933-.921-2.946-1.381a1.966,1.966,0,0,1-.92-2.762c3.774-7.733,4.971-15.927,4.971-24.4a4.013,4.013,0,0,1,4.143-4.327c2.394,0,4.051,1.841,4.051,4.419C254.135,254.123,254.135,255.228,254.135,256.333Z" transform="translate(-212.339 -165.745)"/></g></g></g><g transform="translate(250.946 614.508)"><path class="a" d="M246.5,373.732a.193.193,0,0,1,.052-.157c1.26-3.2,4.095-3.832,7.455-3.622,3.465.21,5.145,1.627,5.2,4.725.1,4.62.052,9.292.052,13.912v.787c.84.263.84.263,1.68.577h0q8.268-8.741,16.537-17.377c2.415-2.572,9.5-3.727,12.6-1.89a3.183,3.183,0,0,1,1.155,2.887,6.693,6.693,0,0,1-1.995,2.94c-5.88,5.985-11.812,11.864-17.9,17.954a.478.478,0,0,0,0,.63q8.032,8.82,16.064,17.534a48.588,48.588,0,0,1,4.3,5.04c1.785,2.625.63,4.357-2.73,4.62-5.2.473-9.345-.525-12.652-4.777-4.935-6.3-10.5-12.179-16.117-18.584a.484.484,0,0,0-.84.21,10.826,10.826,0,0,0-.105,1.1v15.8c0,4.042-.945,5.565-3.78,6.09-4.41.84-7.14-.21-8.872-3.57a.315.315,0,0,1-.053-.21V373.732Z" transform="translate(-246.5 -366.96)"/><path class="a" d="M601.173,430.51a52.812,52.812,0,0,1-5.88-1c-9.082-2.52-14.122-8.242-15.75-16.589a20.526,20.526,0,0,1,12.39-23.151c8.137-3.255,16.379-3.045,24.1,1.155a21.814,21.814,0,0,1,5.617,5.145c1.47,1.68,2.257,3.675.262,5.565-1.732,1.627-6.037,1.68-8.032.263a11.226,11.226,0,0,1-1.68-1.47,12.375,12.375,0,0,0-12.862-3.2c-4.882,1.365-7.14,4.935-7.77,9.24a18.426,18.426,0,0,0,.473,6.982,9.807,9.807,0,0,0,8.032,7.612c4.463.893,8.61.158,11.655-3.15,2.2-2.362,4.725-3.36,8.085-2.362,2.835.84,3.832,2.677,2.52,5.145-3.15,5.985-8.872,8.61-15.8,9.5-.945.105-1.89.262-2.887.367C603.01,430.51,601.855,430.51,601.173,430.51Z" transform="translate(-404.516 -375.387)"/><path class="a" d="M383.711,395.912c9.082-9.292,21.157-8.347,26.984,2.1.262-.21.577-.315.682-.578,4.3-7.245,14.069-9.135,21.892-6.93a11.54,11.54,0,0,1,8.5,8.82,40.711,40.711,0,0,1,1.26,9.082c.21,5.985.105,11.969.053,17.954-.053,3.99-1.68,5.355-6.09,5.355-4.357,0-6.09-1.47-6.09-5.355-.052-5.407,0-10.867-.052-16.274a25.666,25.666,0,0,0-.42-4.462c-.945-4.935-3.465-6.877-8.61-6.72-4.935.157-7.875,2.415-8.242,7.192-.42,6.037-.315,12.127-.473,18.164v2.1c-.1,3.99-1.627,5.355-6.09,5.3-4.357,0-6.037-1.47-6.09-5.407-.053-5.407,0-10.867-.053-16.274a27.6,27.6,0,0,0-.42-4.672c-.787-4.515-2.94-6.352-7.4-6.457-4.83-.158-7.875,1.785-8.767,6.142a45.54,45.54,0,0,0-.682,8.452c-.105,4.3,0,8.662-.053,12.967-.052,3.885-1.732,5.3-6.195,5.25-4.252,0-5.88-1.417-5.88-5.25-.052-10.08,0-20.159,0-30.239,0-4.3,1.26-5.617,5.25-5.775C381.821,390.243,383.238,391.293,383.711,395.912Z" transform="translate(-305.857 -376.331)"/><path class="a" d="M516.388,391.541V369.86c0-4.042,1.68-5.46,6.247-5.46,4.252.053,5.88,1.522,5.88,5.512v43.836c0,1.995-.21,3.937-2.468,4.83-2.572,1-5.46,1.26-7.717-.367a5.47,5.47,0,0,1-1.89-4.042C516.335,406.661,516.388,399.1,516.388,391.541Z" transform="translate(-374.697 -364.4)"/><g transform="translate(47.283 2.677)"><path class="a" d="M344.407,369.552c2.415.735,4.83,1.365,5.722,3.885,1.05,2.992-.63,5.985-3.937,6.93-4.147,1.155-8.242-.315-9.292-3.465-1.1-3.307.577-5.88,4.462-6.982a6.82,6.82,0,0,0,.892-.42C343.042,369.552,343.724,369.552,344.407,369.552Z" transform="translate(-336.567 -369.5)"/><path class="a" d="M338.249,417.922c0-4.567-.053-9.082,0-13.65.052-3.412,1.785-4.672,6.195-4.672,4.042,0,5.88,1.417,5.88,4.777.053,9.082,0,18.164,0,27.3,0,1.732-.262,3.78-2.625,4.147a18.988,18.988,0,0,1-7.507-.315c-1.05-.263-1.837-2.31-1.89-3.517C338.091,427.266,338.249,422.594,338.249,417.922Z" transform="translate(-337.339 -383.798)"/></g><g transform="translate(158.053 2.677)"><path class="a" d="M555.406,369.552c2.415.735,4.83,1.365,5.722,3.885,1.05,2.992-.63,5.985-3.937,6.93-4.147,1.155-8.242-.315-9.292-3.465-1.1-3.307.577-5.88,4.462-6.982a6.831,6.831,0,0,0,.892-.42C554.042,369.552,554.724,369.552,555.406,369.552Z" transform="translate(-547.567 -369.5)"/><path class="a" d="M549.249,417.922c0-4.567-.052-9.082,0-13.65.052-3.412,1.785-4.672,6.195-4.672,4.042,0,5.88,1.417,5.88,4.777.053,9.082,0,18.164,0,27.3,0,1.732-.263,3.78-2.625,4.147a18.987,18.987,0,0,1-7.507-.315c-1.05-.263-1.838-2.31-1.89-3.517C549.091,427.266,549.249,422.594,549.249,417.922Z" transform="translate(-548.339 -383.798)"/></g></g></g></svg>