<svg xmlns="http://www.w3.org/2000/svg" viewBox="0 0 28.766 36.501">
  <defs>
    <style>
      .cls-1 {
        fill: #fff;
        stroke: #fff;
      }
    </style>
  </defs>
  <path id="identities_icon_white" class="cls-1" d="M27.482,35.171l-7.414,3.941a1.913,1.913,0,0,0-.989,1.466,1.884,1.884,0,0,0,.629,1.65,18.238,18.238,0,0,0,6.246,3.437,21.839,21.839,0,0,0,6.92,1.146A22.266,22.266,0,0,0,40.2,45.573a18.26,18.26,0,0,0,5.976-3.345,1.884,1.884,0,0,0,.629-1.65,1.992,1.992,0,0,0-.989-1.466l-7.549-3.987a.253.253,0,0,1-.135-.229V33.659c0-.092,0-.137.045-.183A15.6,15.6,0,0,0,40.737,28.8a4.516,4.516,0,0,0,1.168-2.475,3.335,3.335,0,0,0-.674-3.024V17.895a7.094,7.094,0,0,0-4.538-5.82,11.926,11.926,0,0,0-7.684.046,7,7,0,0,0-4.359,5.774V23.3a3.381,3.381,0,0,0-.674,3.024A4.068,4.068,0,0,0,25.145,28.8a16.211,16.211,0,0,0,2.516,4.628.66.66,0,0,1,.09.275v1.1A.383.383,0,0,1,27.482,35.171Zm1.528-2.979a15.126,15.126,0,0,1-2.2-4.078,1.41,1.41,0,0,0-.449-.687,2.962,2.962,0,0,1-.629-1.512A1.553,1.553,0,0,1,26,24.448a1.716,1.716,0,0,0,.449-1.191V18.078a5.163,5.163,0,0,1,3.28-4.262,10.6,10.6,0,0,1,6.426-.046,5.246,5.246,0,0,1,3.37,4.307v5.178a1.952,1.952,0,0,0,.449,1.191,1.69,1.69,0,0,1,.27,1.466,2.788,2.788,0,0,1-.629,1.512,1.41,1.41,0,0,0-.449.687,14.433,14.433,0,0,1-2.247,4.124,2.141,2.141,0,0,0-.494,1.375V34.85a2.17,2.17,0,0,0,1.123,1.879L45.1,40.715v.092A15.4,15.4,0,0,1,39.7,43.786a20.128,20.128,0,0,1-13.121.092,15.829,15.829,0,0,1-5.617-3.116V40.67l7.414-3.941a2.291,2.291,0,0,0,1.213-2.016V33.7A2.618,2.618,0,0,0,29.009,32.192Z" transform="translate(-18.558 -10.808)"/>
</svg>
