<svg xmlns="http://www.w3.org/2000/svg" viewBox="0 0 32.842 20">
    <path d="M32.053 3.381H12.577a4.114 4.114 0 0 0-8.1 0h-3.7a.785.785 0 1 0 0 1.57h3.719a4.118 4.118 0 0 0 8.066 0h19.491a.785.785 0 1 0 0-1.57zM8.529 6.666a2.548 2.548 0 1 1 2.548-2.548 2.551 2.551 0 0 1-2.548 2.548z" data-name="Path 7463"/>
    <path d="M32.053 15.097h-3.8a4.115 4.115 0 0 0-8.079 0H.785a.785.785 0 0 0 0 1.57h19.388a4.115 4.115 0 0 0 8.079 0h3.8a.785.785 0 0 0 0-1.57zm-7.84 3.333a2.548 2.548 0 1 1 2.548-2.548 2.551 2.551 0 0 1-2.548 2.548z" data-name="Path 7464"/>
</svg>
