<svg xmlns="http://www.w3.org/2000/svg" viewBox="0 0 362.874 318.398"><defs><style>.a{fill:#868686;fill-rule:evenodd;}</style></defs><g transform="translate(-239.363 -83.917)"><path class="a" d="M357.7,184.7H587.566V414.566H357.7V184.7Zm32.032,31.668V382.534h165.62V216.368H389.732Z" transform="translate(-51.783 -100.783)"/><path class="a" d="M386,335.632l82.81-122.3,44.772-.728-85.54,123.032Z" transform="translate(-28.577 -77.905)"/><path class="a" d="M171.4,397.648V360.4h15.932a13.5,13.5,0,0,1,11.713,5.965,21.864,21.864,0,0,1,3.637,12.658,21.174,21.174,0,0,1-4,12.877,13.8,13.8,0,0,1-11.349,5.82H171.4Zm7.784-30.555v23.862h7.2a6.855,6.855,0,0,0,6.329-3.637c1.309-2.182,1.819-4.874,1.819-8.366a15.034,15.034,0,0,0-1.819-7.784,6.7,6.7,0,0,0-6.329-4.147h-7.2Zm45.9,21.825h7.2a10.549,10.549,0,0,1-4.729,7.057,14.32,14.32,0,0,1-8.148,2.182,11.879,11.879,0,0,1-9.239-4.147c-2.546-2.692-3.783-6.111-3.783-10.476a13.6,13.6,0,0,1,3.637-9.6,12.8,12.8,0,0,1,9.385-4c5.456,0,9.021,1.964,11.058,5.82a16.57,16.57,0,0,1,1.673,4.51,28.155,28.155,0,0,1,.509,5.6H213.886a6.607,6.607,0,0,0,1.455,4,5.389,5.389,0,0,0,4.147,2.182,9.154,9.154,0,0,0,3.419-.727,3.948,3.948,0,0,0,2.182-2.4Zm-11.2-7.711h11.2a4.447,4.447,0,0,0-1.673-3.419,5.944,5.944,0,0,0-4-1.673,5.194,5.194,0,0,0-3.783,1.673,4.019,4.019,0,0,0-1.746,3.419Zm23.28-10.694h7.2v17.9a4.209,4.209,0,0,0,1.237,2.546,4.768,4.768,0,0,0,3.055,1.091,5.776,5.776,0,0,0,3.783-1.237,4.734,4.734,0,0,0,1.6-3.492V370.512H261.1v27.135h-7.057v-3.419a9.887,9.887,0,0,1-8.075,4A10.363,10.363,0,0,1,240,396.411a6.319,6.319,0,0,1-2.91-5.238V370.512Zm38.412-7.784v7.784h4.147V375.6h-4.147v13.9a2.332,2.332,0,0,0,.728,1.455,2.209,2.209,0,0,0,1.673.582h1.091a1.138,1.138,0,0,1,.727-.218v6.329a20.827,20.827,0,0,1-2.328.364,10.692,10.692,0,0,1-2.91.218,5.57,5.57,0,0,1-4.365-1.819,5.374,5.374,0,0,1-1.6-4V375.6h-3.637v-5.092h3.637v-3.637l6.984-4.147Zm7.2,25.681h7.2a3.249,3.249,0,0,0,1.455,3.055,5.7,5.7,0,0,0,3.637,1.091,6.191,6.191,0,0,0,3.055-.582,2.439,2.439,0,0,0,1.455-2.328c0-1.455-1.309-2.546-4.147-3.274-4.729-1.309-7.42-1.964-7.784-2.328-2.91-1.237-4.365-3.055-4.365-5.6a7.786,7.786,0,0,1,3.055-6.184,12.386,12.386,0,0,1,7.93-2.328,13.593,13.593,0,0,1,7.93,2.182,7.9,7.9,0,0,1,3.637,6.838h-6.693a3.806,3.806,0,0,0-1.6-2.546,5.777,5.777,0,0,0-3.274-.873,5.867,5.867,0,0,0-2.692.728,2.309,2.309,0,0,0-1.091,1.964c0,1.091,1.455,1.964,4.147,2.546,4.147.727,6.911,1.237,7.784,1.819a6.569,6.569,0,0,1,4.365,6.475A7.268,7.268,0,0,1,303,395.9a13.752,13.752,0,0,1-7.93,2.182,14.015,14.015,0,0,1-8.875-2.692,7.807,7.807,0,0,1-3.419-6.984Zm40.885,9.748a12.4,12.4,0,0,1-9.385-4.147,15.39,15.39,0,0,1-3.637-10.476,14.037,14.037,0,0,1,3.783-9.6,12.717,12.717,0,0,1,9.239-4,12.975,12.975,0,0,1,8.512,3.055,8.628,8.628,0,0,1,3.783,7.275h-7.2a3.581,3.581,0,0,0-1.455-2.91,5.451,5.451,0,0,0-3.637-1.309,4.805,4.805,0,0,0-4.147,2.182,9.133,9.133,0,0,0-1.455,5.238,12.938,12.938,0,0,0,1.455,6.184,4.943,4.943,0,0,0,4.147,2.328,4.735,4.735,0,0,0,3.419-1.455,3.78,3.78,0,0,0,1.673-3.055h7.2a9.639,9.639,0,0,1-3.783,7.784,14.154,14.154,0,0,1-8.512,2.91ZM340.615,360.4h7.2v13.022a7.39,7.39,0,0,1,3.637-2.692,19.49,19.49,0,0,1,4.729-.728,9.981,9.981,0,0,1,6.329,2.182,6.5,6.5,0,0,1,2.692,5.456V397.72h-7.057V380.7a4.118,4.118,0,0,0-4.365-4.365,6.7,6.7,0,0,0-4.147,1.31,4.274,4.274,0,0,0-1.819,3.419v16.66h-7.2V360.4Zm47.942,28.518h7.057a10.8,10.8,0,0,1-4.729,7.057,14.079,14.079,0,0,1-7.93,2.182,12.4,12.4,0,0,1-9.385-4.147c-2.546-2.692-3.637-6.111-3.637-10.476a12.992,12.992,0,0,1,3.637-9.6,12.45,12.45,0,0,1,9.385-4c5.238,0,8.875,1.964,10.84,5.82a11.79,11.79,0,0,1,1.819,4.51,28.268,28.268,0,0,1,.364,5.6H377.208a6.369,6.369,0,0,0,1.6,4,5.081,5.081,0,0,0,4.147,2.182,9.843,9.843,0,0,0,3.419-.727,5.041,5.041,0,0,0,2.182-2.4Zm-11.349-7.711H388.63a4.615,4.615,0,0,0-1.819-3.419,5.194,5.194,0,0,0-3.783-1.673,5.68,5.68,0,0,0-4,1.673,4.284,4.284,0,0,0-1.819,3.419Zm36.666,16.441V360.4h18.988a8.623,8.623,0,0,1,6.838,2.91,9.939,9.939,0,0,1,3.055,7.275,9.822,9.822,0,0,1-1.091,4.51,8.757,8.757,0,0,1-3.637,3.274,11.64,11.64,0,0,1,4.51,3.419,8.7,8.7,0,0,1,1.673,5.092,10.364,10.364,0,0,1-3.055,7.566,8.929,8.929,0,0,1-7.057,3.274H413.874Zm7.639-30.555v7.93h9.239a5.221,5.221,0,0,0,3.274-1.091,3.34,3.34,0,0,0,1.309-2.692,3.827,3.827,0,0,0-1.309-3.055,4.5,4.5,0,0,0-3.055-1.091h-9.457Zm0,14.623v9.239h9.748A4.67,4.67,0,0,0,434.9,389.5a4.57,4.57,0,0,0,1.455-3.274,4.7,4.7,0,0,0-1.455-3.274,5.39,5.39,0,0,0-3.637-1.237Zm35.429-3.055h-7.275a7.586,7.586,0,0,1,3.637-6.693A15.434,15.434,0,0,1,461.088,370c4.147,0,7.275.728,9.239,1.964a5.711,5.711,0,0,1,2.546,4.729v16.66a7.017,7.017,0,0,0,1.6,4.365h-7.42a5.151,5.151,0,0,1-.873-1.455,7.625,7.625,0,0,1-.582-1.6,7.506,7.506,0,0,1-3.637,2.692,11.925,11.925,0,0,1-4.874.873,8.106,8.106,0,0,1-5.965-2.328,8.363,8.363,0,0,1-2.546-5.82,8.6,8.6,0,0,1,1.964-5.6A8.5,8.5,0,0,1,456,381.788c4.147-.728,6.184-1.091,6.329-1.091,2.182-.582,3.2-1.237,3.2-1.964a2.284,2.284,0,0,0-1.237-2.328,5.748,5.748,0,0,0-3.274-.727,7.558,7.558,0,0,0-3.055.727,2.5,2.5,0,0,0-1.019,2.255Zm8.657,9.748v-4.147c-2.328.364-4.147.873-5.6,1.237-2.692.727-4,1.964-4,3.637a2.94,2.94,0,0,0,.873,2.546,4.786,4.786,0,0,0,2.91.728,6.646,6.646,0,0,0,3.637-1.091,4.345,4.345,0,0,0,2.182-2.91Zm13.6-17.9h7.2v3.055a9.88,9.88,0,0,1,3.419-2.692,13.145,13.145,0,0,1,4.365-.946,11.778,11.778,0,0,1,6.329,1.819,6.776,6.776,0,0,1,2.91,5.383v20.443h-7.2V379.751a3.1,3.1,0,0,0-1.091-2.546,4.193,4.193,0,0,0-2.91-.873,6.632,6.632,0,0,0-3.419.728,8.106,8.106,0,0,0-2.328,2.764v17.9h-7.2V370.512ZM509.175,360.4h7.2v19.933l8.293-9.748h8.73l-8.875,10.33,9.748,16.805h-8.512l-6.184-11.567-3.274,3.419v8.148h-7.2V360.4Z" transform="translate(67.963 4.085)"/></g></svg>