<svg xmlns="http://www.w3.org/2000/svg" viewBox="0 0 1303.864 1569.105"><defs><style>.a{opacity:0.848;}.b{fill:#f8f8f8;}</style></defs><g class="a"><path class="b" d="M707.474,194.5c346.243,1.211,641.641,253.025,697.33,595.637,7.265,48.426,8.475,96.851,8.475,145.278,0,16.948-6.052,36.318-14.528,50.846-13.319,25.424-30.267,48.425-46,72.639-8.475,12.106-18.161,20.58-33.9,14.528s-18.159-19.372-16.95-35.109c7.267-93.22,10.9-186.439-10.895-279.659C1234.1,523.795,1033.138,339.778,794.64,308.3c-209.441-27.845-386.2,37.531-530.261,190.072-9.687,9.687-18.16,19.37-33.9,15.738C217.163,510.479,209.9,502,209.9,488.687c1.21-25.422,1.21-50.848,8.473-73.849,6.052-19.371,18.161-39.951,33.9-53.269,113.8-96.85,245.762-151.329,395.882-164.646C666.311,195.711,686.894,195.711,707.474,194.5Z" transform="translate(-209.9 240.122)"/><path class="b" d="M1174.858,745.554c-10.895,81.112-20.581,162.226-32.686,242.13-7.267,54.478-47.216,79.9-94.432,95.639-19.37,6.055-36.318-12.107-31.476-32.686,8.475-38.74,19.37-78.692,26.634-117.434,15.738-92.006,25.423-185.228,15.738-279.658-16.948-159.8-147.7-299.03-307.5-326.873C535.64,289.141,339.514,425.943,301.984,641.438c-2.421,12.107-2.421,24.213-4.842,35.11-1.211,13.316-9.685,21.791-23,24.212-12.105,2.422-23-3.632-27.845-15.738-12.1-33.9-25.424-67.8-32.687-102.9-3.632-16.95,0-36.32,7.265-53.269,76.269-182.807,211.861-292.975,410.407-313.556,255.446-26.635,481.837,145.277,530.263,399.514,2.422,10.9,3.632,21.79,4.842,31.475,2.422,32.688,3.633,65.375,4.844,98.063A4.446,4.446,0,0,0,1174.858,745.554Z" transform="translate(-184.552 440.878)"/><path class="b" d="M629.009,176.4c323.242,9.685,579.9,144.066,767.547,409.2,26.634,37.529,39.953,78.691,39.953,124.7v66.585c0,15.739-6.054,26.633-21.792,30.266s-25.424-6.054-31.478-19.372c-14.526-30.265-27.844-61.743-46-90.8C1201.642,470.587,1003.1,334.994,742.81,295.043,578.16,269.619,419.568,297.464,269.447,370.1c-3.632,2.422-8.475,3.631-12.106,6.052-12.108,6.054-23,6.054-32.687-4.841-9.686-9.686-9.686-20.58-3.634-32.688,26.635-56.9,67.8-96.852,128.33-116.222C429.253,194.558,533.369,177.61,629.009,176.4Z" transform="translate(-132.645 39.095)"/><path class="b" d="M796.63,549.106c-6.053,113.8-23,225.18-61.742,331.714-14.528,41.162-27.845,49.639-70.218,48.429-7.264,0-14.528,0-21.792-1.212-24.212-1.213-36.319-18.161-26.634-41.162,52.057-122.274,71.428-250.6,71.428-381.353,0-93.22-72.638-165.859-164.647-165.859-90.8,0-162.227,73.85-163.438,165.859,0,79.9-8.474,158.593-37.529,233.653-13.317,33.9-31.477,37.531-56.9,12.107-7.263-7.264-15.739-15.74-23-23-14.527-15.738-19.37-32.686-13.317-53.268,16.949-54.479,20.581-111.379,21.792-168.279,0-134.383,89.586-243.34,221.547-271.185,150.12-30.266,302.662,78.693,319.611,230.023C795.42,493.415,795.42,521.261,796.63,549.106Z" transform="translate(-27.871 639.748)"/><path class="b" d="M451.417,159.811c134.38,8.474,266.341,38.741,391.039,94.431,87.165,38.74,148.909,105.326,200.965,182.807,8.475,12.107,7.265,24.213-3.633,35.108-9.682,9.686-24.212,9.686-38.739-1.211-81.112-60.532-168.28-108.956-263.92-142.855-148.908-54.479-303.872-73.85-462.465-58.111-14.53,1.21-25.424-2.422-32.689-15.739-6.053-13.317-2.422-25.423,8.475-31.476C309.771,190.078,370.3,158.6,440.521,158.6A33.5,33.5,0,0,0,451.417,159.811Z" transform="translate(113.954 -158.6)"/><path class="b" d="M418.294,350.334c-4.844,107.746-25.422,213.073-71.428,311.135-13.317,27.844-23,31.477-52.057,19.372-13.319-6.054-25.423-12.108-38.743-18.161-14.526-8.476-19.369-21.791-12.1-36.32C293.6,524.667,309.336,416.92,309.336,305.54c0-33.9,23-58.112,54.479-56.9,31.477,0,53.269,24.212,53.269,58.11C418.294,321.278,418.294,335.808,418.294,350.334Z" transform="translate(131.338 840.94)"/></g></svg>