<?xml version="1.0" encoding="utf-8"?>
<!-- Generator: Adobe Illustrator 21.0.0, SVG Export Plug-In . SVG Version: 6.00 Build 0)  -->
<svg version="1.1" id="Layer_1" xmlns="http://www.w3.org/2000/svg" xmlns:xlink="http://www.w3.org/1999/xlink" x="0px" y="0px"
	 viewBox="0 0 28.8 36.5" style="enable-background:new 0 0 28.8 36.5;" xml:space="preserve">
<style type="text/css">
	.st0{fill:#FFFFFF;stroke:#000000;stroke-miterlimit:10;}
</style>
<path id="identities_icon_white" class="st0" d="M8.9,24.4l-7.4,3.9c-0.5,0.3-0.9,0.8-1,1.5c-0.1,0.6,0.2,1.2,0.6,1.7
	c1.8,1.5,4,2.7,6.2,3.4C9.6,35.6,12,36,14.3,36c2.5,0,5-0.4,7.3-1.2c2.2-0.7,4.2-1.9,6-3.3c0.5-0.4,0.7-1,0.6-1.7
	c-0.1-0.6-0.4-1.2-1-1.5l-7.5-4c-0.1,0-0.1-0.1-0.1-0.2v-1.2c0-0.1,0-0.1,0-0.2c1.1-1.4,2-3,2.6-4.7c0.6-0.7,1-1.5,1.2-2.5
	c0.3-1.1,0-2.2-0.7-3V7.1c-0.3-2.6-2.1-4.9-4.5-5.8c-2.5-0.8-5.2-0.8-7.7,0C8,2.3,6.4,4.5,6.1,7.1v5.4c-0.7,0.8-1,2-0.7,3
	c0.1,0.9,0.5,1.8,1.2,2.5c0.6,1.7,1.4,3.2,2.5,4.6c0,0.1,0.1,0.2,0.1,0.3V24C9.2,24.2,9.1,24.3,8.9,24.4z M10.5,21.4
	c-0.9-1.2-1.7-2.6-2.2-4.1C8.2,17,8,16.8,7.8,16.6c-0.3-0.4-0.6-1-0.6-1.5c-0.2-0.5-0.1-1.1,0.3-1.5c0.3-0.3,0.5-0.8,0.4-1.2V7.3
	C8.1,5.3,9.4,3.7,11.2,3c2.1-0.7,4.3-0.7,6.4,0c1.8,0.7,3.1,2.4,3.4,4.3v5.2c0,0.4,0.2,0.9,0.4,1.2c0.3,0.4,0.4,1,0.3,1.5
	c-0.1,0.6-0.3,1.1-0.6,1.5c-0.2,0.2-0.4,0.4-0.4,0.7c-0.5,1.5-1.3,2.9-2.2,4.1c-0.3,0.4-0.5,0.9-0.5,1.4V24c0,0.8,0.4,1.5,1.1,1.9
	l7.6,4V30c-1.6,1.3-3.4,2.4-5.4,3c-4.2,1.5-8.9,1.5-13.1,0.1C6,32.4,4,31.4,2.4,30v-0.1l7.4-3.9c0.7-0.4,1.2-1.2,1.2-2v-1
	C11,22.3,10.8,21.8,10.5,21.4L10.5,21.4z"/>
</svg>
