<svg xmlns="http://www.w3.org/2000/svg" viewBox="0 0 26.928 26.928">
    <defs>
        <style>
            .cls-1{fill:#505050}
        </style>
    </defs>
    <path id="support_icon" d="M17.464 4a13.464 13.464 0 1 0 13.464 13.464A13.464 13.464 0 0 0 17.464 4zm0 1.756a11.635 11.635 0 0 1 5.011 1.13l-3.19 3.19a7.59 7.59 0 0 0-3.79.038l-3.168-3.167a11.635 11.635 0 0 1 5.137-1.191zm-7.388 13.528l-3.19 3.19a11.684 11.684 0 0 1 .061-10.148l3.167 3.167a7.589 7.589 0 0 0-.038 3.787zm7.388 9.887a11.632 11.632 0 0 1-5.264-1.252l3.152-3.138a7.584 7.584 0 0 0 4.1.041L22.6 27.98a11.635 11.635 0 0 1-5.136 1.192zm0-5.854a5.854 5.854 0 1 1 5.854-5.854 5.854 5.854 0 0 1-5.854 5.855zm11.708-5.854A11.635 11.635 0 0 1 27.98 22.6l-3.167-3.167a7.584 7.584 0 0 0-.041-4.1l3.147-3.133a11.632 11.632 0 0 1 1.253 5.264z" class="cls-1" transform="translate(-4 -4)"/>
</svg>
