<svg xmlns="http://www.w3.org/2000/svg" viewBox="0 0 42.299 50.345">
    <defs>
        <style>
            .cls-1{fill:#fff}.cls-2{fill:#e6ebf0}.cls-3{fill:#0077d8}.cls-4,.cls-5{fill:#006ab2}.cls-5{opacity:.214}
        </style>
    </defs>
    <g id="kimlic_shield_logo">
        <path id="Path_5" d="M74.681 54.6V37.923a5.458 5.458 0 0 0-4.268-5.558c-2.581-.6-5.36-1.29-7.94-1.985l-1.191-.3-5.955-1.48a7.258 7.258 0 0 0-3.573 0c-2.184.5-4.367 1.092-6.451 1.588-2.481.6-5.657 1.39-8.635 2.084a5.458 5.458 0 0 0-4.268 5.557V54.8a19.742 19.742 0 0 0 4.764 13.3 36.61 36.61 0 0 0 14.094 10.124 5.887 5.887 0 0 0 2.283.5 6.822 6.822 0 0 0 2.382-.5 38.107 38.107 0 0 0 12.7-8.536A19.9 19.9 0 0 0 74.681 54.6z" class="cls-1" transform="translate(-32.396 -28.375)"/>
        <path id="Path_6" d="M74.84 54.6V37.923a5.458 5.458 0 0 0-4.268-5.558c-2.581-.6-5.36-1.29-7.94-1.985l-1.191-.3-5.955-1.48a10.936 10.936 0 0 0-1.787-.2v50.32a5.887 5.887 0 0 0 2.283-.5 38.107 38.107 0 0 0 12.7-8.536A19.642 19.642 0 0 0 74.84 54.6z" class="cls-2" transform="translate(-32.555 -28.375)"/>
        <g id="Group_1" transform="translate(7.891 8.335)">
            <path id="Path_7" d="M28.824 23.3a14.292 14.292 0 0 1 14.094 12.109c.1.993.2 1.985.2 2.978a1.677 1.677 0 0 1-.3.993l-.893 1.489c-.2.2-.4.4-.695.3-.4-.2-.4-.4-.4-.794a21.63 21.63 0 0 0-.2-5.657 12.209 12.209 0 0 0-10.024-9.131 11.764 11.764 0 0 0-10.719 3.871c-.2.2-.4.4-.695.3-.3 0-.4-.3-.4-.5a7.661 7.661 0 0 1 .2-1.489 2.57 2.57 0 0 1 .695-1.092 14.945 14.945 0 0 1 8.046-3.377z" class="cls-3" transform="translate(-18.8 -14.566)"/>
            <path id="Path_8" d="M38.752 38.619c-.2 1.687-.4 3.275-.695 4.863-.1 1.092-.993 1.588-1.886 1.985a.437.437 0 0 1-.6-.4v-.3a20.327 20.327 0 0 0 .5-2.382 18.1 18.1 0 0 0 .3-5.657 7.723 7.723 0 0 0-15.285-.2 1.689 1.689 0 0 1-.1.695.469.469 0 0 1-.5.5c-.2.1-.5-.1-.6-.3a17.1 17.1 0 0 1-.695-2.084 2.063 2.063 0 0 1 .1-1.092c1.588-3.672 4.268-5.955 8.337-6.352a9.854 9.854 0 0 1 10.719 8.039c0 .2.1.4.1.6a15.056 15.056 0 0 1 .3 2.084z" class="cls-3" transform="translate(-18.803 -14.6)"/>
            <path id="Path_9" d="M28.738 18.9a18.9 18.9 0 0 1 15.582 8.238 4.343 4.343 0 0 1 .794 2.481v1.39c0 .3-.2.6-.4.6-.3.1-.5-.1-.6-.4-.3-.6-.6-1.29-.893-1.886a16.387 16.387 0 0 0-12.009-8.139 16.137 16.137 0 0 0-9.627 1.489.347.347 0 0 0-.2.1.585.585 0 0 1-.794-.794 4.371 4.371 0 0 1 2.581-2.382 25.819 25.819 0 0 1 5.566-.697z" class="cls-3" transform="translate(-18.813 -14.533)"/>
            <path id="Path_10" d="M34.313 38.652a22.581 22.581 0 0 1-1.29 6.749c-.3.794-.6.993-1.39.993h-.4a.556.556 0 0 1-.6-.5.365.365 0 0 1 .1-.3 20.657 20.657 0 0 0 1.489-7.742 3.325 3.325 0 1 0-6.65-.1v.1a13.344 13.344 0 0 1-.794 4.764c-.3.695-.6.794-1.191.2l-.5-.5a1.12 1.12 0 0 1-.3-1.092 9.833 9.833 0 0 0 .4-3.375 5.54 5.54 0 0 1 4.476-5.449 5.452 5.452 0 0 1 6.451 4.665 4.114 4.114 0 0 1 .199 1.587z" class="cls-3" transform="translate(-18.83 -14.633)"/>
            <path id="Path_11" d="M30.267 14.5a23.845 23.845 0 0 1 7.94 1.886 9.691 9.691 0 0 1 4.069 3.672.49.49 0 0 1-.1.695.6.6 0 0 1-.794 0 21.3 21.3 0 0 0-14.689-4.069c-.3.1-.5-.1-.695-.3a.4.4 0 0 1 .2-.6 7.507 7.507 0 0 1 3.871-1.29z" class="cls-3" transform="translate(-18.854 -14.5)"/>
            <path id="Path_12" d="M29.872 38.784a16.981 16.981 0 0 1-1.489 6.253c-.3.6-.5.6-1.092.4a2.971 2.971 0 0 1-.794-.4.513.513 0 0 1-.3-.695 14.719 14.719 0 0 0 1.29-6.451 1.179 1.179 0 0 1 .993-1.191h.1a1.1 1.1 0 0 1 1.092 1.092v.1a1.475 1.475 0 0 1 .2.892z" class="cls-3" transform="translate(-18.855 -14.666)"/>
        </g>
        <g id="Group_1_1_" transform="translate(21.046 8.467)">
            <path id="Path_5-2" d="M43.16 35.5A14.372 14.372 0 0 0 32.3 23.8V26a12.234 12.234 0 0 1 8.548 8.8 18.083 18.083 0 0 1 .2 5.7c0 .3 0 .6.3.7s.5 0 .7-.3a11.888 11.888 0 0 0 .905-1.5 1.92 1.92 0 0 0 .3-1 13.991 13.991 0 0 0-.093-2.9z" class="cls-4" data-name="Path 5" transform="translate(-32.129 -14.774)"/>
            <path id="Path_6-2" d="M38.96 38.52a12.884 12.884 0 0 0-.1-1.984 1.223 1.223 0 0 0-.1-.6A9.8 9.8 0 0 0 32.2 28.4v2.381a7.755 7.755 0 0 1 4.4 5.953 21 21 0 0 1-.307 5.655c-.1.794-.41 1.587-.512 2.381v.3a.638.638 0 0 0 .615.4c1.024-.3 1.844-.794 1.946-1.984a38.685 38.685 0 0 0 .615-4.961z" class="cls-4" data-name="Path 6" transform="translate(-32.2 -14.736)"/>
            <path id="Subtraction_1" d="M0 12.9V7.352l.127-.81.067-.886.03-1.132-.03-.634C.192 3.85.008 3.217 0 3.19V0a5.651 5.651 0 0 1 .8.74 5.581 5.581 0 0 1 .631.861 5.539 5.539 0 0 1 .45.954 5.488 5.488 0 0 1 .259 1.019c.051.283.077.541.1.792a7.234 7.234 0 0 0 .111.8 22.716 22.716 0 0 1-.411 3.405 19.957 19.957 0 0 1-.977 3.337 2.5 2.5 0 0 1-.442.719A.984.984 0 0 1 0 12.9z" class="cls-5" data-name="Subtraction 1" transform="translate(.027 18.698)"/>
            <path id="Path_8-2" d="M42.484 20.117a9.893 9.893 0 0 0-4.176-3.712A25.579 25.579 0 0 0 32.3 14.7v2.207a16.874 16.874 0 0 1 3.87 1 24.056 24.056 0 0 1 5.5 2.909.627.627 0 0 0 .815 0c.203-.097.203-.398-.001-.699z" class="cls-4" data-name="Path 8" transform="translate(-32.273 -14.7)"/>
            <path id="Path_9-2" d="M44.661 27.087A18.906 18.906 0 0 0 32.3 19.2v2.267a16.5 16.5 0 0 1 11.145 7.887 10.8 10.8 0 0 1 .912 1.873c.1.3.3.493.608.394s.507-.3.405-.592V29.65a3.667 3.667 0 0 0-.709-2.563z" class="cls-4" data-name="Path 9" transform="translate(-32.273 -14.667)"/>
        </g>
    </g>
</svg>
