<svg xmlns="http://www.w3.org/2000/svg" viewBox="0 0 36.13 44.78">
    <defs>
        <style>
            .cls-1,.cls-2,.cls-3{fill:#004b98}.cls-1,.cls-2{fill-rule:evenodd}.cls-2{stroke:#004b98;stroke-width:.5px}
        </style>
    </defs>
    <g id="kimlic_store_icon_blue" transform="translate(-12.992 9.035)">
        <g id="Group_6677" data-name="Group 6677" transform="translate(13.107 -9.035)">
            <path id="Path_7468" d="M1.007 0A1.022 1.022 0 0 0 0 1.037v4.907a8.722 8.722 0 0 0 8.664 8.717 8.722 8.722 0 0 0 8.664-8.717V1.037a1.022 1.022 0 1 0-2.044 0v4.907a6.62 6.62 0 1 1-13.24 0V1.037A1.022 1.022 0 0 0 1.007 0z" class="cls-1" data-name="Path 7468" transform="rotate(180 14.429 8.4)"/>
            <path id="Path_7470" d="M1.007 0A.949.949 0 0 0 0 .88v4.169c0 4.066 3.9 7.4 8.664 7.4s8.664-3.338 8.664-7.4V.88a1.036 1.036 0 0 0-2.044 0v4.169c0 3.126-2.979 5.668-6.62 5.668s-6.62-2.542-6.62-5.668V.88a.806.806 0 0 0-.3-.626A1.123 1.123 0 0 0 1.007 0z" class="cls-1" data-name="Path 7470" transform="rotate(180 12.738 6.227)"/>
            <path id="Path_7469" d="M17.092 959.342a.966.966 0 0 0-.984 1.008l-2.861 26.55a.966.966 0 0 0 .215.7l6.719 8.191a.966.966 0 0 0 .874.334h26.851a.966.966 0 0 0 .966-.966l-.135-30.921a.966.966 0 0 0-.364-.9l-.021-.016-4.964-3.692a1.024 1.024 0 0 0-.813-.27H17.2a.974.974 0 0 0-.113-.01zm2.255 1.942H42.38l2.473 1.839H21.111zm-1.5 1.223l1.967 2.05.135 27.9-4.737-5.775zm3.9 2.549H46.8l.135 29.138H21.877z" class="cls-2" data-name="Path 7469" transform="translate(-13.107 -951.607)"/>
        </g>
        <g id="Group_6678" data-name="Group 6678" transform="translate(25.764 8.266)">
            <path id="Path_7" d="M216.689 194.5a9.679 9.679 0 0 1 9.514 8.126 13.3 13.3 0 0 1 .116 1.982 1.465 1.465 0 0 1-.2.694c-.182.347-.413.661-.628.991-.116.165-.248.281-.462.2s-.248-.264-.231-.479a12.343 12.343 0 0 0-.149-3.815 8.19 8.19 0 0 0-6.772-6.144 8.012 8.012 0 0 0-7.235 2.593c-.132.132-.248.264-.462.215a.338.338 0 0 1-.281-.347 4.01 4.01 0 0 1 .116-1.008 1.617 1.617 0 0 1 .462-.727 9.412 9.412 0 0 1 5.4-2.246c.25-.018.531-.018.812-.035z" class="cls-3" data-name="Path 7" transform="translate(-209.9 -188.57)"/>
            <path id="Path_8" d="M225.316 219.847c-.149 1.107-.281 2.213-.446 3.3a1.619 1.619 0 0 1-1.288 1.3.352.352 0 0 1-.429-.446c.116-.529.264-1.074.363-1.6a14.046 14.046 0 0 0 .215-3.815 5.216 5.216 0 0 0-10.323-.165c-.033.165-.033.33-.066.479a.353.353 0 0 1-.314.33.328.328 0 0 1-.38-.215 10.66 10.66 0 0 1-.446-1.4 1.245 1.245 0 0 1 .1-.727 6.491 6.491 0 0 1 5.6-4.278 6.638 6.638 0 0 1 7.235 5.451c.033.149.05.3.066.429.033.446.05.892.066 1.338a.061.061 0 0 0 .047.019z" class="cls-3" data-name="Path 8" transform="translate(-211.805 -203.66)"/>
            <path id="Path_9" d="M222.479 176.4a12.637 12.637 0 0 1 10.472 5.583 2.861 2.861 0 0 1 .545 1.7v.908a.369.369 0 0 1-.3.413c-.215.05-.347-.083-.429-.264a12.447 12.447 0 0 0-.628-1.239 11.014 11.014 0 0 0-8.11-5.484 10.792 10.792 0 0 0-6.458 1.024c-.05.033-.116.05-.165.083a.334.334 0 0 1-.446-.066.35.35 0 0 1-.05-.446 2.825 2.825 0 0 1 1.751-1.586 12.731 12.731 0 0 1 3.818-.626z" class="cls-3" data-name="Path 9" transform="translate(-215.707 -173.46)"/>
            <path id="Path_10" d="M234.071 234.829a15.556 15.556 0 0 1-.842 4.526c-.2.562-.38.677-.958.661a1.793 1.793 0 0 1-.3-.017.374.374 0 0 1-.363-.562 13.119 13.119 0 0 0 .975-5.2 2.238 2.238 0 1 0-4.476 0 8.722 8.722 0 0 1-.512 3.188c-.182.462-.429.512-.776.165l-.314-.314a.7.7 0 0 1-.182-.727 8.264 8.264 0 0 0 .3-2.3 3.709 3.709 0 0 1 7.383-.562c.048.382.048.762.065 1.142z" class="cls-3" data-name="Path 10" transform="translate(-223.582 -218.609)"/>
            <path id="Path_11" d="M241.956 158.616a15.4 15.4 0 0 1 5.335 1.288 6.554 6.554 0 0 1 2.742 2.494.342.342 0 0 1-.05.479.384.384 0 0 1-.529-.017 13.578 13.578 0 0 0-3.6-1.949 14.121 14.121 0 0 0-6.31-.793.41.41 0 0 1-.446-.215.311.311 0 0 1 .116-.429 5.4 5.4 0 0 1 2.593-.875.457.457 0 0 0 .149.017z" class="cls-3" data-name="Path 11" transform="translate(-234.243 -158.6)"/>
            <path id="Path_12" d="M243.048 249.984a11.069 11.069 0 0 1-.975 4.245c-.182.38-.314.429-.71.264-.182-.083-.347-.165-.529-.248a.353.353 0 0 1-.165-.5 9.77 9.77 0 0 0 .892-4.377.72.72 0 0 1 .743-.776.73.73 0 0 1 .727.793c.017.203.017.401.017.599z" class="cls-3" data-name="Path 12" transform="translate(-235.55 -233.731)"/>
        </g>
    </g>
</svg>
