<?xml version="1.0" encoding="utf-8"?>
<!-- Generator: Adobe Illustrator 22.1.0, SVG Export Plug-In . SVG Version: 6.00 Build 0)  -->
<svg version="1.1" id="Layer_1" xmlns="http://www.w3.org/2000/svg" xmlns:xlink="http://www.w3.org/1999/xlink" x="0px" y="0px"
	 viewBox="0 0 952.3 628" style="enable-background:new 0 0 952.3 628;" xml:space="preserve">
<style type="text/css">
	.st0{fill:#00487E;}
	.st1{font-family:'Brela';}
	.st2{font-size:187.3573px;}
	.st3{font-size:113.6233px;}
	.st4{fill:#004480;stroke:#004480;stroke-linecap:round;stroke-linejoin:round;stroke-miterlimit:10;}
</style>
<g id="PHAROS_PRODUCTION">
	<text transform="matrix(1 0 0 1 176.4137 363.793)" class="st0 st1 st2">PHAROS</text>
</g>
<g id="PHAROS_PRODUCTION_1_">
	<text transform="matrix(1 0 0 1 178.5397 479.707)" class="st0 st1 st3">PRODUCTION</text>
</g>
<path class="st4" d="M171.7,138.5c0,0-6-16.8-14.7-22c-6.3-3.7-20,7.8-26.5,16c-12.7,16-12.7,26.5-12.7,26.5l11.5-6.7
	c0,0,1.4-8.3,14.2-16C153.9,130,171.7,138.5,171.7,138.5z"/>
<path class="st4" d="M189.8,169.3l2.3-2.5c0,0-11.8-17.2-42-15.2c-9.7,0.6-38.9,8.9-42.5,22.3c-4.5,16.6,10.2,19.6,10.2,19.6
	l2.3-10.5c0,0-10-2.3,1.2-13.4c7.4-7.3,24.5-13.9,40.9-12.8C181.7,158,189.8,169.3,189.8,169.3z"/>
<path class="st4" d="M126.8,172.1c3.9-3.7,11.9-5.9,11.9-5.9l10.8-1.1c0,0-15.1,8.9-18.7,16.5c-4,8.4-1.4,20.2-1.4,20.2l-10.5,4.5
	C118.9,206.2,113.5,184.7,126.8,172.1z"/>
<path class="st4" d="M151.9,183.9c0.6-8.4,0.5-10.9,0.5-10.9l4.6-1.3l-2.3,20.6l-4,0.3C150.7,192.7,151.4,190.3,151.9,183.9z"/>
<path class="st4" d="M175.5,172.3l6.4,2l1.5,17.1l-4.5,0.4c0,0-0.1-5.1-0.8-9.1C176.9,175.9,175.5,172.3,175.5,172.3z"/>
<path class="st4" d="M197.4,205.5c0,0-13.8-12.9-41-9.8c-25,2.8-51.6,12.6-55.2,31.5c-2.9,14.9,16.7,26.5,16.7,26.5l9.6-13.6
	c0,0-18.5-16.8,4.9-31.1c24.7-15.1,54.5-2.2,54.5-2.2L197.4,205.5z"/>
<path class="st4" d="M152.7,292.2c-1.9,5.4-39.6,78.6-58.3,129.8c-14.9,40.8-36.7,121.5-36.7,121.5s3.1-46.4,17.4-108.7
	c25.5-111.3,78.7-194.6,78.7-194.6L152.7,292.2z"/>
<path class="st4" d="M153.9,403.2v76.3c0,0-25,27.3-45.1,54.4c-11.6,15.7-42.3,67.3-42.3,67.3s13.9-51,34.4-96.6
	C121.7,458.4,153.9,403.2,153.9,403.2z"/>
<polygon class="st4" points="143.5,107.2 153.9,89.3 153.9,25.4 "/>
<polygon class="st4" points="211.7,173.3 638.7,66.3 616.3,103.9 "/>
<polygon class="st4" points="202.9,192.9 893.4,184.1 883.3,193.3 "/>
</svg>
