<?xml version="1.0" encoding="utf-8"?>
<!-- Generator: Adobe Illustrator 21.0.0, SVG Export Plug-In . SVG Version: 6.00 Build 0)  -->
<svg version="1.1" xmlns="http://www.w3.org/2000/svg" xmlns:xlink="http://www.w3.org/1999/xlink" x="0px" y="0px"
	 viewBox="0 0 39.1 27.2" style="enable-background:new 0 0 39.1 27.2;" xml:space="preserve">
<style type="text/css">
	.st0{fill:#004B98;stroke:#004A98;stroke-width:0.5;}
	.st1{fill:#004B98;stroke:#004B98;stroke-width:0.5;}
</style>
<g id="front">
	<g id="transactions_icon_blue" transform="translate(-159.649 -253.764)">
		<path id="Path_5061" class="st0" d="M198.5,275.5c0-1.1,0-2.2,0-3.2c0-0.8,0-1.6,0-2.5c0-0.7-0.3-1.3-0.8-1.8
			c-0.3-0.3-0.7-0.6-1.1-0.9c-1.4-0.7-2.8-1.2-4.4-1.5c-2.1-0.4-4.3-0.7-6.4-0.7c-3.5-0.2-7,0.2-10.4,1.1c-1.3,0.3-2.5,0.9-3.6,1.7
			c-0.8,0.6-1.2,1.5-1.1,2.4c0,1.8,0,3.6,0,5.4c0,0.7,0.3,1.4,0.8,1.9c0.7,0.7,1.7,1.3,2.6,1.6c2.7,0.9,5.4,1.4,8.3,1.5
			c2.2,0.1,4.4,0.1,6.5-0.2c1.9-0.2,3.8-0.6,5.6-1.1c1.1-0.3,2.1-0.9,3-1.6C198.2,277.2,198.6,276.4,198.5,275.5L198.5,275.5z
			 M173.1,268.9c1-0.6,2-1.1,3.1-1.3c1.7-0.5,3.4-0.7,5.2-0.9c0.9-0.1,1.7-0.1,2.8-0.1c2.9-0.1,5.9,0.3,8.7,1c1,0.2,2,0.6,2.9,1.1
			c0.3,0.2,0.5,0.3,0.7,0.6c0.3,0.2,0.3,0.6,0.1,0.8c0,0-0.1,0.1-0.1,0.1c-0.5,0.5-1,0.8-1.7,1.1c-1.4,0.6-2.9,1-4.4,1.2
			c-2.3,0.4-4.6,0.5-6.9,0.4c-2.8,0-5.5-0.4-8.1-1.2c-0.8-0.2-1.6-0.6-2.3-1.1C172.3,270,172.3,269.5,173.1,268.9L173.1,268.9z
			 M196.7,275.7c0,0.2-0.1,0.4-0.3,0.6c-0.6,0.6-1.4,1-2.2,1.2c-2,0.7-4,1.1-6.1,1.2c-2.2,0.2-4.4,0.2-6.5,0.1
			c-2.2-0.1-4.4-0.5-6.5-1.2c-0.8-0.3-1.6-0.7-2.3-1.2c-0.2-0.2-0.3-0.5-0.3-0.8c0-1.1,0-2.1,0-3.1c0,0,0.1,0,0.1,0
			c1.5,0.8,3.1,1.4,4.7,1.6c3.3,0.6,6.6,0.8,10,0.6c2.4-0.1,4.8-0.5,7-1.2c0.8-0.3,1.7-0.6,2.4-1.1L196.7,275.7z"/>
	</g>
</g>
<g id="Layer_2">
	<path class="st1" d="M26.5,8c0.1-0.1,0.2-0.1,0.3-0.2c0,1.2,0,2.3,0,3.5h0c0,0.1,0,0.1,0,0.1c0.2,0,0.3,0,0.5,0
		c0.5,0,0.9,0.1,1.4,0.2c0-0.1,0-0.2,0-0.3v0c0-2,0-4,0-5.9c0-0.8-0.3-1.5-0.8-2c-0.7-0.6-1.5-1.1-2.3-1.4c-2.2-0.8-4.5-1.3-6.9-1.5
		c-2.1-0.2-4.1-0.2-6.2-0.1C9.9,0.4,7.4,0.8,5,1.4C3.7,1.7,2.4,2.3,1.4,3.1C0.6,3.7,0.2,4.6,0.3,5.5c0,3.9,0,7.8,0,11.7
		c0,0.7,0.3,1.4,0.8,1.9C1.9,20,3,20.7,4.2,21c2.5,0.8,5,1.2,7.6,1.4c-0.2-0.6-0.3-1.2-0.3-1.9C9.2,20.4,7,20,4.9,19.3
		c-0.8-0.2-1.5-0.6-2.2-1.1C2.3,18,2,17.5,2.1,17c0-1,0-2,0-3c0.1-0.1,0.1,0,0.1,0c1.9,1,3.9,1.6,6,1.9c1.2,0.2,2.4,0.3,3.6,0.4
		c0.2-0.7,0.6-1.3,1-1.8c-0.4,0-0.8,0-1.1,0c-2.6-0.1-5.2-0.6-7.6-1.6c-0.6-0.2-1.2-0.6-1.7-1c-0.2-0.2-0.3-0.4-0.3-0.7
		c0-1.1,0-2.2,0-3.3c1.1,0.6,2.2,1.1,3.5,1.4c1.6,0.4,3.3,0.7,5,0.9c2.3,0.2,4.7,0.2,7,0.1c2.5-0.1,5-0.6,7.4-1.4
		C25.5,8.5,26,8.3,26.5,8z M18.9,8.2c-1.3,0.2-2.7,0.2-4.1,0.2c-2.9,0-5.7-0.3-8.5-0.9C4.9,7.2,3.7,6.7,2.6,6c-0.7-0.6-0.7-1,0-1.6
		c0.8-0.6,1.8-1,2.7-1.3c2.2-0.6,4.4-1,6.7-1.1c1.7-0.1,3.3-0.1,5,0c2.6,0.1,5.3,0.6,7.7,1.6c0.6,0.2,1.2,0.6,1.7,1
		c0.4,0.4,0.4,0.7,0,1.1h0c-0.6,0.6-1.4,1-2.2,1.2C22.5,7.6,20.7,8,18.9,8.2z"/>
</g>
</svg>
