<?xml version="1.0" encoding="utf-8"?>
<!-- Generator: Adobe Illustrator 21.0.0, SVG Export Plug-In . SVG Version: 6.00 Build 0)  -->
<svg version="1.1" id="Layer_1" xmlns="http://www.w3.org/2000/svg" xmlns:xlink="http://www.w3.org/1999/xlink" x="0px" y="0px"
	 viewBox="0 0 45.9 44.4" style="enable-background:new 0 0 45.9 44.4;" xml:space="preserve">
<style type="text/css">
	.st0{fill:#FFFFFF;stroke:#000000;stroke-miterlimit:10;}
</style>
<g id="plugins" transform="translate(87.492 34.447) rotate(137)">
	<g id="Group_3162" transform="translate(15.5 44.4)">
		<path id="Path_5058" class="st0" d="M18.4,0l-3,0C11.3,0,7.7,3.1,7,7.2l-5.7,0C0.6,7.3,0,7.9,0.1,8.6c0,0.7,0.6,1.3,1.3,1.3l5.7,0
			c0.7,4.2,4.2,7.2,8.4,7.2h3c0.7,0,1.3-0.6,1.3-1.4l0-14.4C19.8,0.6,19.2,0,18.4,0z M17.1,14.5l-1.6,0c-3.2,0-5.8-2.7-5.8-6
			c0-3.2,2.6-5.8,5.8-5.8l1.6,0L17.1,14.5z"/>
		<path id="Path_5059" class="st0" d="M45.3,7.2l-5.7,0C39,3.1,35.4,0,31.2,0l-3,0c-0.7,0-1.3,0.6-1.4,1.4l0,2.2l-3.2,0
			c-0.7,0-1.3,0.7-1.3,1.4c0,0.7,0.6,1.3,1.3,1.3l3.2,0l0,4.7l-3.2,0c-0.7,0-1.4,0.6-1.4,1.3c0,0.7,0.6,1.4,1.3,1.4c0,0,0.1,0,0.1,0
			l3.2,0l0,2.2c0,0.7,0.6,1.3,1.4,1.4l3,0c4.2,0,7.8-3.1,8.4-7.2l5.7,0c0.7,0,1.3-0.6,1.4-1.4C46.7,7.9,46.1,7.3,45.3,7.2z
			 M31.1,14.5l-1.6,0l0-11.8l1.6,0c3.2,0,5.8,2.7,5.8,6C36.9,11.8,34.3,14.4,31.1,14.5L31.1,14.5z"/>
	</g>
</g>
</svg>
