<svg xmlns="http://www.w3.org/2000/svg" viewBox="0 0 39.125 27.198">
    <defs>
        <style>
            .cls-1,.cls-3{fill:#004b98;stroke-width:.5px}.cls-1{stroke:#004b98}.cls-2{fill:#0077e0}.cls-3{stroke:#004a98}
        </style>
    </defs>
    <g id="transactions_icon_blue" transform="translate(-159.649 -253.764)">
        <path id="Path_5060" d="M188.294 265.123c0-1.977-.006-3.953.006-5.93a2.726 2.726 0 0 0-.841-2.033 6.8 6.8 0 0 0-2.34-1.448 24.323 24.323 0 0 0-6.9-1.505 43.075 43.075 0 0 0-6.174-.142 32.142 32.142 0 0 0-7.424 1.113 9.587 9.587 0 0 0-3.6 1.732 2.924 2.924 0 0 0-1.121 2.39q.026 5.862 0 11.729a2.664 2.664 0 0 0 .79 1.926 7.762 7.762 0 0 0 3.164 1.818 30.6 30.6 0 0 0 9.111 1.437 38.933 38.933 0 0 0 5.635-.233 26.52 26.52 0 0 0 5.6-1.153 8.8 8.8 0 0 0 3.016-1.59 2.909 2.909 0 0 0 1.091-2.369c-.036-1.913-.013-3.828-.013-5.742zm-2.113 6.578a6.2 6.2 0 0 1-2.323 1.289 24.353 24.353 0 0 1-5.9 1.221 38.7 38.7 0 0 1-5.129.165 28.753 28.753 0 0 1-8.27-1.306 8.125 8.125 0 0 1-2.2-1.068 1.324 1.324 0 0 1-.63-1.216c.04-1.005.011-2.016.011-3.016.062-.057.108-.011.148.011a17.7 17.7 0 0 0 6 1.874 38.767 38.767 0 0 0 7.946.437 28.8 28.8 0 0 0 8.742-1.505c.324-.119.648-.25.96-.4s.591-.307.926-.483v3.414a.8.8 0 0 1-.281.582zm.273-6.595c-.006.341-.284.551-.54.744a9.045 9.045 0 0 1-2.965 1.346 28.007 28.007 0 0 1-6.356 1.022 41.667 41.667 0 0 1-5.26-.011 24.171 24.171 0 0 1-7.645-1.568 5.091 5.091 0 0 1-1.659-1.011.961.961 0 0 1-.307-.727c.011-1.079.006-2.164.006-3.306a13.716 13.716 0 0 0 3.453 1.392 29.745 29.745 0 0 0 4.987.863 40.82 40.82 0 0 0 7.021.068 27.6 27.6 0 0 0 7.424-1.443 11.831 11.831 0 0 0 1.545-.7c.091-.051.182-.1.3-.159.007 1.184.018 2.337-.005 3.49zm-.3-5.572a6.05 6.05 0 0 1-2.21 1.227 23.087 23.087 0 0 1-5.43 1.193c-1.346.159-2.7.216-4.141.244a33.934 33.934 0 0 1-8.537-.949 9.972 9.972 0 0 1-3.539-1.505c-.738-.551-.733-1.005.011-1.562a8.642 8.642 0 0 1 2.726-1.261 28.153 28.153 0 0 1 6.7-1.1 39.845 39.845 0 0 1 5.01.011 24.433 24.433 0 0 1 7.742 1.562 4.956 4.956 0 0 1 1.681 1.022c.405.425.4.715-.015 1.118z" class="cls-1" data-name="Path 5060"/>
        <path id="Path_5062" d="M189.252 267.321l-6.893.124-5.223 1.066-2.793 1.2-1.171 1.476-.226 3.066.226 3.778 7.383.294 4.987-.962 3.935-1.566 1.2-2.372v-5.977z" class="cls-2" data-name="Path 5062" transform="translate(-1.626 -1.659)"/>
        <path id="Path_5061" d="M392.746 502.589c-.028-.9-.006-1.795-.006-2.692 0-.937-.011-1.874.006-2.812a2.64 2.64 0 0 0-.807-1.971 5.31 5.31 0 0 0-1.125-.858 14.584 14.584 0 0 0-4.351-1.522 34.737 34.737 0 0 0-6.407-.7 35.721 35.721 0 0 0-10.412 1.085 9.7 9.7 0 0 0-3.607 1.693 2.882 2.882 0 0 0-1.147 2.414 219.3 219.3 0 0 1 0 5.441 2.66 2.66 0 0 0 .778 1.948 6.959 6.959 0 0 0 2.641 1.607 27.473 27.473 0 0 0 8.253 1.534 39.338 39.338 0 0 0 6.543-.165 26.256 26.256 0 0 0 5.612-1.147 8.618 8.618 0 0 0 2.982-1.579 2.755 2.755 0 0 0 1.047-2.276zm-25.418-6.538a9.841 9.841 0 0 1 3.135-1.34 26.9 26.9 0 0 1 5.2-.863c.852-.068 1.71-.108 2.812-.125a32.681 32.681 0 0 1 8.69.988 10.989 10.989 0 0 1 2.851 1.147 3.14 3.14 0 0 1 .7.557.594.594 0 0 1 0 .926 4.633 4.633 0 0 1-1.659 1.051 18.979 18.979 0 0 1-4.425 1.2 36.111 36.111 0 0 1-6.867.426 28.588 28.588 0 0 1-8.128-1.227 8.243 8.243 0 0 1-2.306-1.085c-.849-.606-.849-1.053-.003-1.655zm23.612 6.765a.777.777 0 0 1-.284.562 5.89 5.89 0 0 1-2.187 1.233 23.981 23.981 0 0 1-6.089 1.244 39.4 39.4 0 0 1-6.549.051 24.894 24.894 0 0 1-6.5-1.233 6.385 6.385 0 0 1-2.317-1.25.967.967 0 0 1-.329-.761c.011-1.051.006-2.1.006-3.147.045-.045.08-.028.119-.011a15.06 15.06 0 0 0 4.7 1.636 37.864 37.864 0 0 0 9.969.6 28.48 28.48 0 0 0 7.038-1.221 12.238 12.238 0 0 0 2.431-1.079z" class="cls-3" data-name="Path 5061" transform="translate(-194.224 -227.107)"/>
    </g>
</svg>
